<svg xmlns="http://www.w3.org/2000/svg" width="32" height="32" viewBox="0 0 32 32"><path fill="#1C1C1C" d="M27.657 5.343a8 8 0 0 0-11.314 0L16 5.715l-.343-.372A8 8 0 0 0 4.343 16.657l.778.843.675.731 9.518 10.312.686.742.686-.743 9.518-10.312.675-.731.778-.843a8 8 0 0 0 0-11.313zm-.545 10.445l-.908.982-.676.73L16 27.801 6.472 17.5l-.676-.731-.908-.982a6.77 6.77 0 0 1 0-9.575l.324-.324a6.77 6.77 0 0 1 9.575 0l.527.569.686.742.686-.741.527-.569a6.77 6.77 0 0 1 9.575 0l.324.324a6.77 6.77 0 0 1 0 9.575z"/></svg>